<?xml version="1.0" encoding="UTF-8" standalone="no"?>
<svg
   xmlns:dc="http://purl.org/dc/elements/1.1/"
   xmlns:cc="http://creativecommons.org/ns#"
   xmlns:rdf="http://www.w3.org/1999/02/22-rdf-syntax-ns#"
   xmlns:svg="http://www.w3.org/2000/svg"
   xmlns="http://www.w3.org/2000/svg"
   xmlns:xlink="http://www.w3.org/1999/xlink"
   xmlns:sodipodi="http://sodipodi.sourceforge.net/DTD/sodipodi-0.dtd"
   xmlns:inkscape="http://www.inkscape.org/namespaces/inkscape"
   width="210mm"
   height="297mm"
   viewBox="0 0 210 297"
   version="1.1"
   id="svg4696"
   inkscape:version="1.0 (4035a4fb49, 2020-05-01)"
   sodipodi:docname="Draft_Coin_tail.svg"
   inkscape:export-filename="D:\rkind\Documents\Inkscape\Draft_Logo_7_print.png"
   inkscape:export-xdpi="96"
   inkscape:export-ydpi="96"
   shape-rendering="crispEdges">
  <defs
     id="defs4690">
    <clipPath
       clipPathUnits="userSpaceOnUse"
       id="clipPath8610">
      <path
         sodipodi:nodetypes="ccccccccc"
         inkscape:connector-curvature="0"
         id="path8612"
         d="m 419.69886,-161.89802 c -6.1681,-0.12362 -17.54948,2.12896 -22.85644,5.37147 l 6.88077,72.687839 129.80967,1.03848 22.97716,-73.726319 c -4.295,-3.09415 -15.29809,-4.97707 -22.85643,-5.37147 -47.40968,4.84254 -41.58179,26.21202 -34.65012,48.86881 l -44.61783,0.21608 c 5.70662,-19.75879 15.04649,-44.28012 -34.68678,-49.08489 z"
         style="fill:none;stroke:#000000;stroke-width:0.23498058px;stroke-linecap:butt;stroke-linejoin:miter;stroke-opacity:1" />
    </clipPath>
    <linearGradient
       inkscape:collect="always"
       xlink:href="#linearGradient9268"
       id="linearGradient9262"
       x1="-27.699089"
       y1="1150.045"
       x2="88.682434"
       y2="1150.045"
       gradientUnits="userSpaceOnUse"
       spreadMethod="reflect"
       gradientTransform="matrix(0.30822801,0,0,0.30822801,98.78731,-214.45728)" />
    <linearGradient
       id="linearGradient9268"
       inkscape:collect="always">
      <stop
         id="stop9264"
         offset="0"
         style="stop-color:#000000;stop-opacity:1;" />
      <stop
         id="stop9266"
         offset="1"
         style="stop-color:#000000;stop-opacity:0.19607843" />
    </linearGradient>
    <linearGradient
       inkscape:collect="always"
       xlink:href="#linearGradient9250"
       id="linearGradient9240"
       x1="88.682434"
       y1="1032.9752"
       x2="88.682434"
       y2="1150.045"
       gradientUnits="userSpaceOnUse"
       spreadMethod="reflect"
       gradientTransform="matrix(0.30822801,0,0,0.30822801,98.78731,-214.45728)" />
    <linearGradient
       id="linearGradient9250"
       inkscape:collect="always">
      <stop
         id="stop9246"
         offset="0"
         style="stop-color:#ff6600;stop-opacity:1;" />
      <stop
         id="stop9248"
         offset="1"
         style="stop-color:#ff6600;stop-opacity:0.19607843" />
    </linearGradient>
  </defs>
  <sodipodi:namedview
     id="base"
     pagecolor="#ffffff"
     bordercolor="#666666"
     borderopacity="1.0"
     inkscape:pageopacity="0.0"
     inkscape:pageshadow="2"
     inkscape:zoom="0.7"
     inkscape:cx="-179.45804"
     inkscape:cy="351.40067"
     inkscape:document-units="mm"
     inkscape:current-layer="layer1"
     showgrid="false"
     inkscape:window-width="2736"
     inkscape:window-height="1744"
     inkscape:window-x="-11"
     inkscape:window-y="-11"
     inkscape:window-maximized="1"
     showborder="false"
     inkscape:document-rotation="0"
     inkscape:snap-bbox="true"
     inkscape:snap-grids="false"
     inkscape:bbox-paths="false"
     inkscape:bbox-nodes="false" />
  <metadata
     id="metadata4693">
    <rdf:RDF>
      <cc:Work
         rdf:about="">
        <dc:format>image/svg+xml</dc:format>
        <dc:type
           rdf:resource="http://purl.org/dc/dcmitype/StillImage" />
        <dc:title />
      </cc:Work>
    </rdf:RDF>
  </metadata>
  <g
     inkscape:label="Ebene 1"
     inkscape:groupmode="layer"
     id="layer1">
    <circle
       cy="144.125"
       cx="124.26189"
       id="path55-5"
       style="opacity:1;fill:#333333;fill-rule:evenodd;stroke-width:0.248708"
       r="94" />
    <circle
       style="opacity:1;fill:#ececec;fill-rule:evenodd;stroke-width:0.246063"
       id="path55"
       cx="126.26189"
       cy="140.625"
       r="93" />
    <path
       style="display:inline;fill:url(#linearGradient9240);fill-opacity:1;stroke:#000000;stroke-width:0.154114;stroke-linecap:butt;stroke-linejoin:miter;stroke-miterlimit:4;stroke-dasharray:none;stroke-opacity:1"
       d="m 90.24967,103.93462 c -28.75042,13.6598 -56.86419,36.08419 -56.86419,36.08419 0,0 28.02027,22.34964 56.72067,36.01573 -6.02539,-12.65408 -10.36314,-25.44046 -10.35248,-36.01573 0.0108,-10.59808 4.41111,-23.41679 10.496,-36.08419 z m 71.5689,0.0256 c 6.05175,12.66348 10.42766,25.47406 10.43832,36.05856 0.0105,10.5618 -4.30286,23.33982 -10.29545,35.98992 28.5612,-13.66839 56.43063,-35.98992 56.43063,-35.98992 0,0 -27.96242,-22.39635 -56.5735,-36.05856 z"
       id="path9222"
       inkscape:connector-curvature="0"
       inkscape:export-xdpi="96"
       inkscape:export-ydpi="96" />
    <path
       style="display:inline;fill:url(#linearGradient9262);fill-opacity:1;stroke:#000000;stroke-width:0.154114;stroke-linecap:butt;stroke-linejoin:miter;stroke-miterlimit:4;stroke-dasharray:none;stroke-opacity:1"
       d="m 126.12172,47.748478 c 0,0 -22.19364,27.710646 -35.87205,56.186142 12.60723,-5.989894 25.33677,-10.29463 35.87205,-10.283999 10.49002,0.01057 23.15579,4.321115 35.69685,10.309649 C 148.20928,75.482423 126.12172,47.748478 126.12172,47.748478 Z m 35.83972,128.260272 c -12.58771,6.02403 -25.30987,10.36765 -35.83972,10.37828 -10.57525,0.0108 -23.36148,-4.32706 -36.01557,-10.35249 13.66612,28.70041 36.01557,56.72053 36.01557,56.72053 0,0 22.24273,-28.04366 35.83972,-56.74632 z"
       id="path9227"
       inkscape:connector-curvature="0"
       inkscape:export-xdpi="96"
       inkscape:export-ydpi="96" />
    <path
       id="path9272"
       style="display:inline;fill:none;stroke:#000000;stroke-width:0.3;stroke-linecap:butt;stroke-linejoin:miter;stroke-miterlimit:4;stroke-dasharray:none;stroke-opacity:1"
       d="m 84.512521,121.54503 c 4.414581,5.41972 9.635199,9.49223 15.568559,12.37393 0.0944,-0.0369 0.19163,-0.0684 0.28732,-0.10284 a 30.863029,23.075357 0 0 0 -5.176425,12.79147 30.863029,23.075357 0 0 0 30.863225,23.07508 30.863029,23.075357 0 0 0 30.86272,-23.07508 30.863029,23.075357 0 0 0 -5.21208,-12.83178 c 0.14861,0.0512 0.29739,0.10226 0.44286,0.15917 5.93335,-2.88167 11.15395,-6.95421 15.56856,-12.37393 -10.52142,-0.0239 -17.72932,2.82593 -23.57737,6.34794 a 30.863029,23.075357 0 0 0 -18.08469,-4.377 30.863029,23.075357 0 0 0 -18.00768,4.33514 c -5.84049,-3.51022 -13.039049,-6.34593 -23.534999,-6.3221 z" />
    <ellipse
       style="opacity:1;fill:none;stroke:#000000;stroke-width:0.3;stroke-miterlimit:4;stroke-dasharray:none;stroke-opacity:1"
       id="path89"
       cx="126.06477"
       cy="146.65312"
       rx="30.863028"
       ry="23.075357" />
    <path
       style="fill:none;stroke:#000000;stroke-width:0.264583px;stroke-linecap:butt;stroke-linejoin:miter;stroke-opacity:1"
       d="m 144.13988,127.90899 c -16.3982,10.72128 -15.86366,41.5241 -15.86366,41.5241"
       id="path931"
       sodipodi:nodetypes="cc" />
    <path
       style="fill:none;stroke:#000000;stroke-width:0.264583px;stroke-linecap:butt;stroke-linejoin:miter;stroke-opacity:1"
       d="m 152.1487,133.93498 c -17.54969,12.73891 -21.46706,35.56492 -21.46706,35.56492"
       id="path933"
       sodipodi:nodetypes="cc" />
    <path
       style="fill:none;stroke:#000000;stroke-width:0.264583px;stroke-linecap:butt;stroke-linejoin:miter;stroke-opacity:1"
       d="m 155.87179,140.56798 c -14.633,5.81311 -22.38382,28.33056 -22.38382,28.33056"
       id="path935"
       sodipodi:nodetypes="cc" />
    <path
       style="fill:none;stroke:#000000;stroke-width:0.264583px;stroke-linecap:butt;stroke-linejoin:miter;stroke-opacity:1"
       d="m 133.82206,124.39817 c -7.48355,4.54358 -7.77272,11.58436 -7.77272,11.58436"
       id="path937"
       sodipodi:nodetypes="cc" />
    <path
       sodipodi:nodetypes="cc"
       id="path931-0"
       d="m 108.04752,127.86713 c 16.39821,10.72129 15.86367,41.5241 15.86367,41.5241"
       style="fill:none;stroke:#000000;stroke-width:0.264583px;stroke-linecap:butt;stroke-linejoin:miter;stroke-opacity:1" />
    <path
       sodipodi:nodetypes="cc"
       id="path933-1"
       d="m 100.0387,133.89312 c 17.54969,12.73891 21.46706,35.56492 21.46706,35.56492"
       style="fill:none;stroke:#000000;stroke-width:0.264583px;stroke-linecap:butt;stroke-linejoin:miter;stroke-opacity:1" />
    <path
       sodipodi:nodetypes="cc"
       id="path935-7"
       d="m 96.315612,140.52612 c 14.632998,5.81311 22.383818,28.33055 22.383818,28.33055"
       style="fill:none;stroke:#000000;stroke-width:0.264583px;stroke-linecap:butt;stroke-linejoin:miter;stroke-opacity:1" />
    <path
       sodipodi:nodetypes="cc"
       id="path937-6"
       d="m 118.36534,124.35631 c 7.48355,4.54358 7.684,11.62622 7.684,11.62622"
       style="fill:none;stroke:#000000;stroke-width:0.264583px;stroke-linecap:butt;stroke-linejoin:miter;stroke-opacity:1" />
  </g>
  <g
     inkscape:groupmode="layer"
     id="layer2"
     inkscape:label="Ebene 2"
     style="display:inline" />
  <g
     inkscape:groupmode="layer"
     id="layer3"
     inkscape:label="Ebene 3"
     style="display:inline" />
</svg>
